<?xml version="1.0" encoding="UTF-8"?>
<svg width="38px" height="38px" viewBox="0 0 38 38" version="1.1" xmlns="http://www.w3.org/2000/svg" xmlns:xlink="http://www.w3.org/1999/xlink">
    <!-- Generator: Sketch 55.2 (78181) - https://sketchapp.com -->
    <title>gradient-inactive</title>
    <desc>Created with Sketch.</desc>
    <defs>
        <linearGradient x1="50%" y1="0%" x2="50%" y2="100%" id="linearGradient-1">
            <stop stop-color="#FBFBFB" offset="0%"></stop>
            <stop stop-color="#B3C4CE" offset="100%"></stop>
        </linearGradient>
    </defs>
    <g id="gradient-inactive" stroke="none" stroke-width="1" fill="none" fill-rule="evenodd">
        <g id="Group-24">
            <circle id="Oval-Copy-13" fill="url(#linearGradient-1)" cx="19" cy="19" r="19"></circle>
            <path d="M19,38 C29.4934102,38 38,29.4934102 38,19 C38,8.50658975 29.4934102,0 19,0 C8.50658975,0 0,8.50658975 0,19 C0,29.4934102 8.50658975,38 19,38 Z M19,36.5 C9.33501688,36.5 1.5,28.6649831 1.5,19 C1.5,9.33501688 9.33501688,1.5 19,1.5 C28.6649831,1.5 36.5,9.33501688 36.5,19 C36.5,28.6649831 28.6649831,36.5 19,36.5 Z" id="Oval-Copy-13" fill="#B3C4CE" fill-rule="nonzero"></path>
        </g>
    </g>
</svg>