<?xml version="1.0" encoding="UTF-8"?>
<svg width="38px" height="38px" viewBox="0 0 38 38" version="1.1" xmlns="http://www.w3.org/2000/svg" xmlns:xlink="http://www.w3.org/1999/xlink">
    <!-- Generator: Sketch 55.2 (78181) - https://sketchapp.com -->
    <title>gradient-active</title>
    <desc>Created with Sketch.</desc>
    <defs>
        <linearGradient x1="50%" y1="0%" x2="50%" y2="100%" id="linearGradient-1">
            <stop stop-color="#FFFFFF" offset="0%"></stop>
            <stop stop-color="#3FB3F6" offset="100%"></stop>
        </linearGradient>
        <path d="M19,38 C8.50658975,38 0,29.4934102 0,19 C0,8.50658975 8.50658975,0 19,0 C29.4934102,0 38,8.50658975 38,19 C38,29.4934102 29.4934102,38 19,38 Z" id="path-2"></path>
    </defs>
    <g id="gradient-active" stroke="none" stroke-width="1" fill="none" fill-rule="evenodd">
        <g id="Group-21" transform="translate(4.000000, 4.000000)" fill="url(#linearGradient-1)">
            <circle id="Oval" cx="15" cy="15" r="15"></circle>
        </g>
        <g id="Combined-Shape" stroke-linejoin="square">
            <path stroke="#FFFFFF" stroke-width="4" d="M19,36 C28.3888407,36 36,28.3888407 36,19 C36,9.61115925 28.3888407,2 19,2 C9.61115925,2 2,9.61115925 2,19 C2,28.3888407 9.61115925,36 19,36 Z"></path>
            <path stroke="#3FB3F6" stroke-width="2" d="M19,37 C28.9411255,37 37,28.9411255 37,19 C37,9.0588745 28.9411255,1 19,1 C9.0588745,1 1,9.0588745 1,19 C1,28.9411255 9.0588745,37 19,37 Z"></path>
        </g>
    </g>
</svg>