<?xml version="1.0" encoding="UTF-8"?>
<svg width="38px" height="38px" viewBox="0 0 38 38" version="1.1" xmlns="http://www.w3.org/2000/svg" xmlns:xlink="http://www.w3.org/1999/xlink">
    <!-- Generator: Sketch 55.2 (78181) - https://sketchapp.com -->
    <title>image-active</title>
    <desc>Created with Sketch.</desc>
    <g id="image-active" stroke="none" stroke-width="1" fill="none" fill-rule="evenodd">
        <path d="M6,26.3545169 L13.8293907,18.5251263 L27.0264947,31.7222303 C24.7216061,33.1656041 21.996416,34 19.0763423,34 C13.4643823,34 8.57223056,30.9181346 6,26.3545169 Z M33.1244616,24.2699447 C32.1510231,26.8636355 30.479869,29.1161141 28.3395941,30.7987856 L24.0260898,26.4852814 L29.6829441,20.8284271 L33.1244616,24.2699447 Z M22.5763423,17 C20.091061,17 18.0763423,14.9852814 18.0763423,12.5 C18.0763423,10.0147186 20.091061,8 22.5763423,8 C25.0616237,8 27.0763423,10.0147186 27.0763423,12.5 C27.0763423,14.9852814 25.0616237,17 22.5763423,17 Z M19,38 C8.50658975,38 0,29.4934102 0,19 C0,8.50658975 8.50658975,0 19,0 C29.4934102,0 38,8.50658975 38,19 C38,29.4934102 29.4934102,38 19,38 Z M19,36 C28.3888407,36 36,28.3888407 36,19 C36,9.61115925 28.3888407,2 19,2 C9.61115925,2 2,9.61115925 2,19 C2,28.3888407 9.61115925,36 19,36 Z" id="Combined-Shape" fill="#3FB3F6"></path>
    </g>
</svg>